<svg width="40" height="25" viewBox="0 0 40 25" fill="none" xmlns="http://www.w3.org/2000/svg">
<path d="M27.2621 8.82867C26.5184 8.60761 25.7323 8.49668 24.9409 8.5011C22.3812 8.5011 20.5735 9.55296 20.5607 11.0629C20.5447 12.1722 21.8453 12.7973 22.8292 13.1679C23.8386 13.549 24.1762 13.7891 24.173 14.1297C24.1666 14.6478 23.3667 14.8827 22.6228 14.8827C21.6006 14.8827 21.0422 14.7666 20.1832 14.4756L19.8648 14.3542L19.5017 16.0925C20.124 16.3039 21.2454 16.4853 22.4036 16.501C25.1248 16.501 26.9038 15.4556 26.9246 13.8491C26.947 12.963 26.2431 12.2935 24.7617 11.7402C23.861 11.3813 23.3027 11.1412 23.3027 10.7771C23.3027 10.4547 23.781 10.1102 24.7809 10.1102C25.4463 10.0971 26.1076 10.1989 26.7214 10.4091L26.9614 10.4965L27.3245 8.81692L27.2621 8.82867ZM33.9043 8.64205H31.9046C31.2823 8.64205 30.8136 8.78169 30.5416 9.28543L26.6958 16.3927H29.417L29.9609 15.2273L33.282 15.2299C33.3604 15.5026 33.6004 16.3927 33.6004 16.3927H36L33.9043 8.64205ZM16.8797 8.5768H19.4729L17.8507 16.3313H15.2607L16.8797 8.57419V8.5768ZM10.2967 12.8508L10.5654 13.9274L13.0994 8.64205H15.8462L11.7652 16.3822H9.02485L6.78518 9.82833C6.74891 9.72026 6.66372 9.62744 6.54682 9.56862C5.73958 9.22845 4.88426 8.9703 4 8.79996L4.03519 8.63683H8.20897C8.77528 8.6551 9.23122 8.79996 9.38319 9.29326L10.2951 12.8547L10.2967 12.8508ZM30.7048 13.6416L31.7382 11.4727C31.7254 11.4962 31.951 11.025 32.0822 10.734L32.2598 11.4035L32.8597 13.6403H30.7032L30.7048 13.6416Z" fill="#1434CB"/>
</svg>
