<svg width="40" height="25" viewBox="0 0 40 25" fill="none" xmlns="http://www.w3.org/2000/svg">
<path d="M35 2.50244H5C4.44772 2.50244 4 2.95016 4 3.50244V21.5024C4 22.0547 4.44772 22.5024 5 22.5024H35C35.5523 22.5024 36 22.0547 36 21.5024V3.50244C36 2.95016 35.5523 2.50244 35 2.50244Z" fill="white"/>
<path d="M17.5011 19.072L4.8418 19.0766V19.0462C4.8418 19.0294 4.86199 18.9208 4.88664 18.8047C4.91134 18.6887 4.94969 18.5041 4.97196 18.3946C4.99413 18.285 5.03213 18.0989 5.0563 17.9809C5.11577 17.6925 5.17453 17.4039 5.23254 17.1152C5.25538 17.0014 5.29342 16.8153 5.31719 16.7016C5.3475 16.5561 5.37745 16.4105 5.40719 16.2649C5.4329 16.1385 5.472 15.9454 5.49409 15.8358C5.51618 15.7263 5.55126 15.5574 5.57207 15.4605C5.59284 15.3636 5.61939 15.2326 5.63097 15.1694C5.64259 15.1062 5.68018 14.92 5.71451 14.7557C5.74341 14.618 5.77151 14.4801 5.79868 14.342C5.81065 14.2788 5.84869 14.0926 5.88324 13.9284C5.91775 13.7641 5.95566 13.5779 5.9675 13.5147C5.97934 13.4515 6.01747 13.2653 6.05219 13.101C6.08701 12.9367 6.12456 12.754 6.13561 12.695C6.14674 12.636 6.17714 12.4844 6.2032 12.358C6.22923 12.2316 6.27853 11.9937 6.31273 11.8294C6.34697 11.665 6.40547 11.3789 6.44271 11.1934C6.48005 11.0081 6.52462 10.7875 6.54181 10.7032C6.59231 10.4554 6.64325 10.2077 6.69472 9.96015C6.72008 9.83786 6.7613 9.63793 6.78636 9.51573C6.81145 9.39352 6.85006 9.20394 6.8722 9.09441C6.89433 8.98489 6.93211 8.8022 6.95614 8.68839C6.98018 8.57466 7.02153 8.37465 7.04804 8.24405C7.07455 8.11341 7.11895 7.91349 7.1467 7.79972C7.17445 7.68595 7.21368 7.54806 7.23391 7.49332C7.2541 7.43849 7.30991 7.31982 7.35789 7.22943L7.44515 7.0652L7.52445 6.96129C7.56801 6.90421 7.64591 6.81394 7.69747 6.76075C7.74903 6.70755 7.83597 6.6275 7.8908 6.58287C7.94554 6.53821 8.02485 6.47794 8.06695 6.44896C8.1091 6.41998 8.19186 6.36921 8.25084 6.33617C8.30982 6.30312 8.39262 6.25986 8.43472 6.24003C8.47687 6.22019 8.56307 6.18392 8.62625 6.15948C8.68943 6.1351 8.81009 6.09414 8.89434 6.06856C8.9786 6.04293 9.13681 6.00432 9.24589 5.9828C9.35498 5.96124 9.52728 5.93244 9.62895 5.91878L9.81367 5.89395L22.4809 5.88918L35.1482 5.88428V5.91476C35.1482 5.93151 35.1279 6.04015 35.1031 6.15617C35.0718 6.30299 35.041 6.44989 35.0108 6.59697C34.9849 6.72337 34.9472 6.90611 34.9269 7.003C34.8981 7.14084 34.8696 7.27873 34.8414 7.41667C34.8148 7.54731 34.7738 7.74728 34.7503 7.861C34.7268 7.97477 34.6888 8.16095 34.6658 8.27467C34.6429 8.38848 34.6046 8.57462 34.5809 8.68834C34.5532 8.82106 34.5259 8.95387 34.499 9.08677C34.4777 9.1921 34.4392 9.38168 34.4134 9.50808C34.3876 9.63444 34.3462 9.83445 34.3214 9.95242C34.2966 10.0704 34.2587 10.2531 34.2374 10.3584C34.2159 10.4638 34.1774 10.6534 34.1517 10.7797C34.126 10.9061 34.0847 11.1061 34.0599 11.2241C34.035 11.3421 33.9981 11.5213 33.9777 11.6225C33.921 11.9034 33.8639 12.1844 33.8065 12.4652C33.7857 12.5663 33.7488 12.7456 33.7243 12.8635C33.693 13.0141 33.662 13.1648 33.6312 13.3155C33.6045 13.4462 33.5662 13.6322 33.5462 13.7292C33.5262 13.8261 33.4887 14.0088 33.4629 14.1352C33.4327 14.2833 33.4024 14.4314 33.3718 14.5795C33.3475 14.6975 33.3093 14.8837 33.2869 14.9933C33.2647 15.1028 33.2258 15.2924 33.2008 15.4145C33.1757 15.5367 33.1346 15.7367 33.1097 15.8589C33.0847 15.9811 33.0472 16.1638 33.0264 16.2649C32.998 16.4027 32.9699 16.5406 32.9419 16.6786C32.9117 16.8263 32.8808 16.9738 32.849 17.1212L32.8029 17.334L32.748 17.4812C32.7177 17.5622 32.6723 17.6699 32.6469 17.7204C32.6217 17.771 32.5701 17.8602 32.5324 17.9187C32.4947 17.9771 32.4421 18.052 32.4156 18.0851C32.389 18.1182 32.3092 18.2037 32.2381 18.2751L32.1089 18.4047L31.9846 18.4931C31.9162 18.5417 31.8425 18.5912 31.8209 18.6029C31.7992 18.6148 31.7168 18.6569 31.6377 18.6964C31.5587 18.736 31.447 18.7864 31.3896 18.8083C31.3321 18.8304 31.2183 18.8678 31.1367 18.8915C31.0551 18.9153 30.9677 18.9387 30.9424 18.9436C30.9171 18.9484 30.8294 18.9666 30.7474 18.984C30.6655 19.0014 30.5 19.0272 30.3797 19.0416L30.161 19.0676L17.5017 19.072H17.5011ZM12.9973 15.7975H13.3267L13.3359 15.7733C13.3411 15.7599 13.3453 15.7286 13.3453 15.7037C13.3453 15.6787 13.3561 15.5879 13.3694 15.502C13.3827 15.4159 13.4138 15.218 13.4386 15.0621C13.4634 14.9062 13.5005 14.6718 13.5211 14.5412C13.5407 14.4175 13.5593 14.2936 13.577 14.1696C13.5871 14.0959 13.5994 14.0356 13.6044 14.0356C13.6094 14.0356 13.6307 14.0681 13.6518 14.108L13.69 14.1804L13.7749 14.266L13.8599 14.3516L13.9644 14.3935L14.069 14.4353L14.1936 14.4515L14.3182 14.4676L14.4764 14.4579L14.6345 14.4481L14.8058 14.4039L14.9771 14.3595L15.069 14.3176C15.1196 14.2945 15.2092 14.2442 15.2681 14.2058L15.3754 14.1359L15.4754 14.0359C15.5304 13.9811 15.608 13.8929 15.6477 13.84C15.6876 13.7873 15.7202 13.7403 15.7202 13.7356C15.7202 13.7309 15.7397 13.6982 15.7636 13.663C15.7875 13.6277 15.8364 13.5299 15.8723 13.4457C15.9082 13.3614 15.9642 13.2097 15.9969 13.1086L16.0563 12.9247L16.087 12.7655C16.1039 12.6779 16.1256 12.5331 16.1353 12.4437L16.1528 12.2812L16.1427 12.1433L16.1325 12.0054L16.1005 11.8676L16.0686 11.7297L16.0168 11.6265L15.9651 11.5232L15.8651 11.4172L15.7651 11.3113L15.6469 11.2501L15.5286 11.189L15.3983 11.1578L15.2681 11.1266L15.1378 11.1171L15.0076 11.1075L14.8626 11.1242L14.7175 11.1409L14.5991 11.1711L14.4807 11.2013L14.3778 11.249C14.3212 11.2751 14.2389 11.3196 14.1949 11.3478C14.1508 11.376 14.1054 11.4083 14.0939 11.4198C14.0824 11.4312 14.0549 11.4525 14.0328 11.4669L13.9926 11.4932L14.0207 11.3586C14.0362 11.2846 14.0491 11.2155 14.0494 11.2049L14.0501 11.1857H13.4882L13.439 11.496C13.4119 11.6667 13.3691 11.9304 13.3439 12.0821C13.2884 12.4167 13.2322 12.7512 13.1753 13.0856C13.1503 13.2331 13.1089 13.4675 13.0833 13.6066C13.0577 13.7456 13.0203 13.949 13.0001 14.0586C12.9799 14.1681 12.9418 14.3749 12.9156 14.5182C12.8846 14.6868 12.8533 14.8553 12.8217 15.0238C12.7918 15.1822 12.7612 15.3405 12.7301 15.4987C12.705 15.6251 12.6808 15.7441 12.6761 15.763L12.6678 15.7975H12.9973V15.7975ZM14.4155 14.0261L14.2876 14.0338L14.204 14.019L14.1203 14.0042L14.0354 13.9655L13.9505 13.9267L13.8912 13.87L13.8318 13.8134L13.7976 13.7368C13.7787 13.6947 13.7546 13.6231 13.7438 13.5777L13.7243 13.4953L13.7321 13.3632L13.74 13.2313L13.7794 13.0244C13.8092 12.8662 13.8381 12.7079 13.866 12.5494C13.892 12.4019 13.9313 12.1858 13.9533 12.0692L13.9934 11.8571L14.0812 11.784C14.1296 11.7439 14.2061 11.69 14.2513 11.6644L14.3335 11.6177L14.4407 11.5845L14.548 11.5513L14.6859 11.5432L14.8238 11.5351L14.9361 11.559L15.0484 11.5829L15.1276 11.6194L15.2069 11.6559L15.2733 11.7227L15.3398 11.7895L15.3756 11.8603C15.3953 11.8992 15.423 11.9754 15.4371 12.0295L15.4628 12.128L15.4549 12.4192L15.4471 12.7103L15.4077 12.8824C15.3861 12.977 15.3449 13.1218 15.3162 13.2041L15.264 13.3538L15.2001 13.475C15.1649 13.5416 15.1107 13.6317 15.0796 13.6751C15.0485 13.7184 14.9988 13.7748 14.9693 13.8001C14.9336 13.8305 14.897 13.8598 14.8596 13.8881L14.8034 13.93L14.6734 13.9742L14.5434 14.0184L14.4155 14.0261ZM17.597 14.4473L17.7656 14.4493L17.934 14.4339C18.0268 14.4254 18.1785 14.4078 18.2711 14.3947C18.3639 14.3817 18.524 14.3524 18.627 14.3298L18.8143 14.2886L18.8237 14.2195C18.8288 14.1816 18.8498 14.0685 18.8704 13.9683L18.9078 13.786L18.8995 13.7778L18.8913 13.7696L18.834 13.7972C18.8025 13.8124 18.7044 13.8487 18.616 13.8778L18.4553 13.9307L18.2866 13.9634L18.1179 13.9961L17.8498 13.9967L17.5817 13.9971L17.4898 13.9678C17.4392 13.9517 17.3649 13.9222 17.3245 13.9022L17.2512 13.8659L17.1907 13.8112L17.1302 13.7565L17.083 13.674L17.0357 13.5915L17.0061 13.488L16.9765 13.3844L16.9764 13.1929L16.9761 13.0013L17.0024 12.8304L17.0288 12.6595L17.2593 12.6487L17.4898 12.6379L18.3421 12.6435L19.1944 12.6489L19.2201 12.5398C19.2343 12.4797 19.256 12.3556 19.2682 12.264L19.2906 12.0973L19.2911 11.9572L19.2916 11.817L19.2674 11.7124L19.243 11.6077L19.2029 11.5385C19.1809 11.5004 19.1419 11.4452 19.1165 11.4158C19.0911 11.3864 19.0456 11.3449 19.0155 11.3237C18.9853 11.3025 18.9263 11.2667 18.8841 11.2443L18.8076 11.2035L18.6737 11.1713L18.5399 11.1391L18.375 11.1233L18.21 11.1076L18.0569 11.1176L17.9036 11.1275L17.7198 11.1629L17.5359 11.1982L17.421 11.2441C17.3577 11.2693 17.2612 11.3155 17.2065 11.3465C17.1517 11.3776 17.0759 11.4281 17.038 11.4588C17 11.4895 16.9343 11.5493 16.8921 11.5916C16.8497 11.6339 16.7871 11.7098 16.753 11.7604C16.7188 11.811 16.6664 11.9006 16.6364 11.9595C16.6066 12.0186 16.5676 12.1013 16.5499 12.1434C16.5323 12.1855 16.5 12.2717 16.4785 12.3349C16.4568 12.3982 16.4228 12.5188 16.403 12.6031C16.3796 12.7052 16.3593 12.808 16.3423 12.9113L16.3178 13.0664L16.3181 13.2944L16.3184 13.5224L16.3416 13.622C16.3544 13.6767 16.3789 13.7595 16.396 13.8058C16.4131 13.8522 16.4448 13.9211 16.4664 13.9591C16.488 13.997 16.5341 14.058 16.5688 14.0947C16.6035 14.1314 16.6664 14.1872 16.7086 14.2185C16.7506 14.2498 16.8257 14.294 16.8752 14.3165L16.9653 14.3575L17.0909 14.3879C17.1599 14.4046 17.2642 14.4244 17.3226 14.4319C17.3808 14.4392 17.5043 14.4463 17.597 14.4473ZM17.8856 12.2889C17.4614 12.2889 17.1144 12.2859 17.1144 12.2821C17.1144 12.2785 17.1325 12.225 17.1546 12.1634C17.1767 12.1018 17.2156 12.0102 17.2409 11.9598L17.2871 11.868L17.3884 11.7672L17.4898 11.6663L17.5894 11.6188C17.6441 11.5926 17.7165 11.5641 17.7502 11.5554C17.784 11.5467 17.8805 11.5352 17.9647 11.5299L18.118 11.52L18.2357 11.5352L18.3533 11.5503L18.4388 11.5894L18.5244 11.6286L18.5713 11.6792C18.597 11.707 18.6277 11.748 18.6396 11.7702L18.6609 11.8106L18.6751 11.9005L18.6892 11.9902L18.673 12.1396L18.6569 12.289H17.8856V12.2889ZM22.4694 14.4474L22.638 14.4493L22.8294 14.4265C22.9347 14.4141 23.0749 14.3934 23.1409 14.3805C23.2207 14.3645 23.2999 14.3457 23.3784 14.3242C23.443 14.3059 23.5014 14.2862 23.5082 14.2803C23.5151 14.2745 23.5333 14.205 23.5488 14.1258C23.5643 14.0467 23.5838 13.9406 23.5921 13.89C23.6004 13.8395 23.6048 13.7954 23.6017 13.7921C23.5986 13.7888 23.5874 13.7931 23.5766 13.8016C23.5659 13.8101 23.4907 13.8418 23.4096 13.8719L23.2621 13.9267L23.0519 13.9674L22.8418 14.0081L22.6632 14.002L22.4846 13.9959L22.3831 13.9606L22.2816 13.9254L22.2033 13.8569L22.1249 13.7883L22.0729 13.6935L22.0209 13.5988L21.996 13.4721L21.9713 13.3454L21.9715 13.181L21.9716 13.0166L22.0017 12.8175L22.0318 12.6182L22.0637 12.5109C22.0812 12.4519 22.1011 12.383 22.1077 12.3577C22.1144 12.3324 22.1425 12.2601 22.1702 12.1968C22.1978 12.1336 22.2471 12.0359 22.2797 11.9798L22.339 11.8776L22.4118 11.8021L22.4846 11.7266L22.5617 11.6788L22.6389 11.631L22.738 11.6004C22.7925 11.5837 22.8888 11.5619 22.952 11.5521L23.0669 11.5342L23.2354 11.5426L23.4039 11.551L23.6031 11.5909L23.8023 11.6307L23.8833 11.661C23.9278 11.6775 23.9662 11.6912 23.9687 11.6912C23.971 11.6912 23.9817 11.6343 23.9924 11.5648C24.0031 11.4953 24.0221 11.3809 24.0346 11.3106C24.0472 11.2403 24.0545 11.1798 24.0507 11.1761C24.047 11.1724 23.9872 11.1629 23.9177 11.1549C23.8482 11.1471 23.6593 11.133 23.4981 11.1237L23.2048 11.1069L22.9979 11.1227L22.791 11.1386L22.6378 11.1708L22.4846 11.203L22.3859 11.2424C22.3316 11.2641 22.2522 11.3033 22.2093 11.3295C22.1681 11.3545 22.1277 11.3806 22.088 11.4077C22.0641 11.4246 21.9918 11.4903 21.9273 11.5539L21.81 11.6694L21.7444 11.7653C21.7084 11.8181 21.6461 11.9282 21.6059 12.0099L21.5329 12.1585L21.477 12.3194C21.4462 12.4078 21.4032 12.5526 21.3815 12.6411L21.342 12.802L21.3276 12.9476L21.3133 13.0932L21.3134 13.2847L21.3136 13.4762L21.3281 13.5876L21.3425 13.699L21.3884 13.8136L21.4343 13.9282L21.4873 14.0111L21.5403 14.0939L21.6245 14.1769L21.7089 14.2598L21.798 14.307L21.8872 14.354L22.0043 14.3866C22.0687 14.4045 22.1618 14.425 22.2112 14.4322C22.2606 14.4394 22.3768 14.4462 22.4695 14.4472H22.4694V14.4474ZM24.9897 14.4417L25.1965 14.4358L25.3267 14.4025L25.457 14.3691L25.5413 14.3293C25.5876 14.3074 25.6635 14.2641 25.7098 14.2332C25.7561 14.2022 25.8279 14.1434 25.8692 14.1024C25.9105 14.0614 25.9718 13.9915 26.0054 13.947C26.039 13.9025 26.0685 13.8682 26.0709 13.8707C26.0735 13.8732 26.0657 13.9439 26.0537 14.0281C26.0418 14.1122 26.0319 14.2241 26.0318 14.2769L26.0315 14.3726H26.5939L26.6024 14.1543L26.611 13.936L26.6511 13.6525C26.6732 13.4966 26.7089 13.2656 26.7304 13.1392C26.7518 13.0129 26.7892 12.7992 26.8134 12.6643C26.8376 12.5294 26.8759 12.3191 26.8985 12.1969L26.9396 11.9748L26.9411 11.7829L26.9424 11.591L26.899 11.5023L26.8556 11.4136L26.7968 11.3571L26.7379 11.3006L26.6414 11.2518L26.5447 11.2028L26.4008 11.1707L26.2568 11.1386L26.0586 11.1236L25.8603 11.1085L25.605 11.1243C25.4645 11.133 25.267 11.1501 25.1658 11.1624L24.982 11.1847L24.8567 11.1852L24.7314 11.1857L24.7131 11.2738C24.7031 11.3223 24.6752 11.4374 24.6512 11.5297C24.6271 11.6219 24.6098 11.6996 24.6125 11.7023C24.6152 11.705 24.6822 11.6898 24.7614 11.6685C24.8405 11.6472 25.0088 11.6122 25.1352 11.5906L25.365 11.5514L25.5719 11.543L25.7787 11.5344L25.912 11.5578L26.0453 11.5811L26.1342 11.625L26.2231 11.6689L26.2729 11.7431L26.3227 11.8174L26.322 11.9343L26.3213 12.0513L26.2949 12.1797L26.2684 12.3081L25.7171 12.3101L25.1658 12.3121L24.9854 12.3615C24.8862 12.3888 24.7763 12.4249 24.7412 12.4418C24.7061 12.4588 24.6711 12.4727 24.6632 12.4727C24.6555 12.4727 24.5964 12.5053 24.5321 12.5454L24.4151 12.6181L24.3229 12.71C24.2722 12.7607 24.2075 12.8365 24.179 12.8786C24.1506 12.9207 24.1043 13.0088 24.0763 13.0742L24.0253 13.1932L24.002 13.327L23.9786 13.4608V13.7416L24.0009 13.8585L24.0233 13.9754L24.0647 14.0516C24.0875 14.0935 24.1295 14.1549 24.1578 14.1881L24.2094 14.2483L24.3009 14.304L24.3926 14.3597L24.4975 14.3893C24.5552 14.4056 24.643 14.4254 24.6927 14.4333L24.7829 14.4475L24.9897 14.4416H24.9897V14.4417ZM25.1812 14.0132L25.0587 14.0197L24.9775 13.999C24.9328 13.9876 24.8651 13.9623 24.8269 13.9427L24.7576 13.907L24.7197 13.8619C24.6989 13.8371 24.6671 13.7886 24.649 13.7539L24.6162 13.6908L24.6098 13.5435L24.6033 13.3962L24.6293 13.3069C24.6435 13.2578 24.6771 13.1725 24.7038 13.1174L24.7523 13.0172L24.8453 12.925L24.9381 12.8328L25.0367 12.7853L25.1353 12.7379L25.2579 12.7087L25.3804 12.6796H26.1465L26.1708 12.6896L26.195 12.6996L26.1746 12.8199C26.1634 12.886 26.1367 13.0056 26.1151 13.0857C26.0937 13.1658 26.0557 13.2834 26.0309 13.3472C26.006 13.411 25.9857 13.4674 25.9857 13.4725C25.9857 13.4777 25.9605 13.5241 25.9297 13.5758L25.8737 13.6698L25.7819 13.7608C25.7314 13.8108 25.6844 13.8518 25.6776 13.8518C25.6709 13.8518 25.6399 13.8691 25.6088 13.8901L25.5524 13.9284L25.4281 13.9678L25.3039 14.007L25.1812 14.0132ZM30.1684 14.4472L30.314 14.449L30.4519 14.4266C30.5277 14.4143 30.6242 14.3945 30.6664 14.3826C30.7085 14.3706 30.7844 14.3397 30.8348 14.3138L30.9268 14.2667L31.0059 14.1971L31.085 14.1275L31.1683 14.0164C31.2141 13.9553 31.2556 13.895 31.2605 13.8824L31.2693 13.8593L31.2616 13.936C31.2561 13.9872 31.2491 14.0383 31.2404 14.0892C31.233 14.1313 31.2225 14.2123 31.2169 14.2692L31.2067 14.3726H31.8079V14.1658L31.8536 13.775C31.8788 13.5601 31.9161 13.2741 31.9364 13.1392C31.9567 13.0043 31.9881 12.8114 32.0062 12.7102C32.0241 12.6091 32.0561 12.4263 32.0771 12.3042C32.0981 12.182 32.136 11.9682 32.1614 11.8292C32.1867 11.6902 32.2273 11.4695 32.2515 11.339C32.2757 11.2083 32.3134 11.0049 32.3353 10.8869C32.3571 10.769 32.3961 10.5621 32.422 10.4273C32.4492 10.2867 32.4773 10.1462 32.5062 10.006C32.5266 9.90912 32.5433 9.8246 32.5433 9.81828V9.80675H31.8874L31.8778 9.90254C31.8725 9.9552 31.8473 10.1293 31.822 10.2894C31.7919 10.4785 31.7613 10.6675 31.7301 10.8563C31.7119 10.9652 31.694 11.0742 31.6762 11.1832L31.668 11.2342L31.6421 11.2233C31.6279 11.2172 31.5507 11.1958 31.4707 11.1757L31.3252 11.1391L31.126 11.1236L30.9268 11.1081L30.7582 11.1237L30.5897 11.1394L30.4365 11.1782L30.2833 11.2169L30.1378 11.2879L29.9921 11.3589L29.8849 11.4382L29.7776 11.5176L29.685 11.617C29.634 11.6716 29.5605 11.762 29.5214 11.8177L29.4506 11.9192L29.3672 12.0925C29.3215 12.1878 29.2657 12.314 29.2434 12.373C29.221 12.4321 29.1817 12.5628 29.1559 12.6636L29.109 12.847L29.0859 13.085L29.0628 13.323L29.0801 13.5145L29.0976 13.7061L29.1181 13.775C29.1294 13.8129 29.1531 13.8805 29.1709 13.9251L29.2032 14.0064L29.2622 14.0862L29.3212 14.166L29.3886 14.2212L29.4559 14.2764L29.5478 14.3221C29.5984 14.3471 29.6832 14.3796 29.7363 14.3941C29.7893 14.4086 29.8755 14.4261 29.9279 14.4329C29.9801 14.4398 30.0883 14.4462 30.1684 14.4472ZM30.4297 14.0126L30.314 14.0186L30.2359 14.0046C30.193 13.9969 30.1243 13.9761 30.0832 13.9585L30.0086 13.9266L29.9457 13.8751L29.883 13.8236L29.8363 13.7343L29.7896 13.6449L29.7683 13.5453L29.7471 13.4457L29.7489 13.2465L29.7507 13.0474L29.7754 12.8711L29.8001 12.695L29.8385 12.5725C29.8597 12.505 29.877 12.4414 29.8771 12.431C29.8773 12.4208 29.8981 12.3657 29.9235 12.3086C29.9532 12.2425 29.9845 12.1772 30.0176 12.1128C30.044 12.0622 30.0934 11.9834 30.1273 11.9376C30.1613 11.8919 30.2217 11.8229 30.2617 11.7844C30.3016 11.746 30.3651 11.6954 30.4029 11.6722L30.4715 11.63L30.5919 11.5883L30.7124 11.5466L30.9652 11.5465H31.218L31.3636 11.5869C31.4437 11.6091 31.5287 11.6348 31.5525 11.6441L31.5958 11.661L31.5874 11.703C31.5828 11.7262 31.5645 11.8278 31.5469 11.9289C31.5293 12.0301 31.4946 12.2231 31.4698 12.358C31.445 12.4928 31.407 12.6962 31.3852 12.8099C31.3634 12.9237 31.3319 13.0685 31.3151 13.1316C31.2979 13.1966 31.2804 13.2614 31.2626 13.3262C31.2505 13.3699 31.2215 13.4458 31.1984 13.4947C31.1752 13.5436 31.1346 13.6147 31.1082 13.6525C31.0817 13.6904 31.0371 13.7431 31.0089 13.7693C30.9807 13.7956 30.9197 13.8423 30.8734 13.8731L30.7891 13.9291L30.6673 13.9678L30.5455 14.0065L30.4297 14.0126ZM7.88033 14.3726H8.25256L8.27929 14.2079C8.29396 14.1173 8.32268 13.9432 8.34304 13.821L8.4273 13.3154C8.45328 13.1595 8.49225 12.9285 8.51385 12.8022C8.53546 12.6758 8.56983 12.4797 8.59015 12.3665C8.61052 12.2532 8.63106 12.1566 8.63575 12.1519L8.64436 12.1434H10.6464L10.6575 12.1545L10.6686 12.1656L10.6512 12.2541C10.6417 12.3028 10.6135 12.4528 10.5885 12.5877C10.5636 12.7226 10.5216 12.95 10.4952 13.0934C10.4675 13.2441 10.4393 13.3947 10.4106 13.5453C10.3904 13.6506 10.3495 13.8712 10.3197 14.0356C10.29 14.1999 10.2657 14.3429 10.2658 14.3535L10.266 14.3726H11.0135L11.0301 14.2769C11.0392 14.2243 11.0538 14.1295 11.0626 14.0662C11.0714 14.003 11.0926 13.8685 11.1097 13.7674C11.1268 13.6664 11.161 13.4663 11.1857 13.3231C11.2103 13.1799 11.2517 12.9351 11.2775 12.7791C11.3033 12.6232 11.3416 12.3957 11.3626 12.2736C11.3892 12.1202 11.4169 11.967 11.4456 11.814C11.4703 11.6833 11.5115 11.4627 11.5371 11.3236C11.5628 11.1846 11.6011 10.9743 11.6224 10.8563C11.6437 10.7383 11.6825 10.5246 11.7086 10.3813C11.7348 10.2381 11.7678 10.071 11.782 10.0098L11.8078 9.89869H11.0508L11.0405 9.9715C11.0349 10.0114 11.0166 10.1235 10.9999 10.2205C10.9832 10.3174 10.9528 10.4897 10.9324 10.6035C10.912 10.7173 10.8747 10.9344 10.8495 11.0862C10.8249 11.2347 10.8011 11.3835 10.7782 11.5324L10.7527 11.7028L10.1971 11.714L9.64149 11.7252L9.17617 11.7142C8.92023 11.7081 8.7094 11.702 8.70763 11.7005C8.70591 11.699 8.71461 11.6395 8.72698 11.5682C8.74328 11.4762 8.76065 11.3845 8.77907 11.293C8.80258 11.1756 8.82542 11.0581 8.84755 10.9405C8.86898 10.8268 8.89319 10.6855 8.90145 10.6265C8.90967 10.5675 8.92695 10.4692 8.9398 10.4081C8.95266 10.347 8.97705 10.2183 8.99401 10.1222C9.01094 10.0259 9.02901 9.93629 9.03418 9.92299L9.04345 9.89865H8.29259L8.2686 10.0327C8.25534 10.1065 8.23772 10.2116 8.22941 10.2664C8.22106 10.3211 8.19309 10.497 8.16725 10.6571C8.1414 10.8172 8.10323 11.0551 8.08242 11.1857L7.99834 11.7142C7.96878 11.8984 7.93759 12.0822 7.90485 12.2658C7.87759 12.4166 7.8498 12.5672 7.82148 12.7178C7.80156 12.8232 7.7636 13.0231 7.7371 13.1622C7.70931 13.3079 7.68063 13.4534 7.65116 13.5988C7.6304 13.6999 7.60747 13.8171 7.60022 13.8593C7.59289 13.9014 7.56921 14.023 7.54747 14.1294C7.52578 14.2357 7.50802 14.334 7.50802 14.3477V14.3725H7.88033V14.3726ZM12.0015 14.3726H12.331L12.3403 14.3484C12.3455 14.335 12.3496 14.3 12.3496 14.2707C12.3496 14.2413 12.3704 14.0884 12.3957 13.931C12.4535 13.5724 12.5128 13.214 12.5735 12.8558C12.5995 12.7048 12.6268 12.5542 12.6556 12.4038C12.68 12.2774 12.7175 12.0809 12.7388 11.9672C12.7602 11.8534 12.8022 11.637 12.8322 11.4861C12.8622 11.3354 12.8905 11.206 12.8951 11.1986L12.9034 11.1851L12.5701 11.1892L12.2369 11.1933L12.2091 11.3926C12.1939 11.5021 12.1605 11.7194 12.1349 11.8752C12.1094 12.0311 12.0708 12.269 12.0491 12.4038C12.0229 12.565 11.9949 12.7259 11.9652 12.8865C11.9407 13.0171 11.9031 13.217 11.8817 13.3308C11.8603 13.4446 11.8219 13.6445 11.7964 13.7751C11.7708 13.9058 11.7366 14.0781 11.7202 14.1582C11.7038 14.2383 11.6863 14.3193 11.6812 14.3382L11.6719 14.3726H12.0015V14.3726ZM19.7094 14.3726H20.0365L20.0463 14.2342C20.0517 14.1581 20.0702 14.0047 20.0874 13.8933C20.1047 13.7819 20.14 13.5598 20.1658 13.3997C20.1985 13.2018 20.2341 13.0043 20.2727 12.8074C20.3056 12.6418 20.3428 12.4772 20.3553 12.4416C20.3679 12.4061 20.3782 12.3675 20.3782 12.356C20.3782 12.3444 20.4028 12.2815 20.4328 12.2162C20.4629 12.1508 20.5188 12.0508 20.5573 11.9939L20.6271 11.8903L20.7206 11.8037L20.8141 11.7172L20.9293 11.6622L21.0445 11.6071L21.2208 11.608L21.3969 11.6089L21.4835 11.6348C21.5312 11.649 21.5743 11.6607 21.5793 11.6607C21.5843 11.6607 21.5884 11.6444 21.5884 11.6245C21.5884 11.6046 21.6057 11.5037 21.6267 11.4002C21.6478 11.2968 21.665 11.2078 21.665 11.2025C21.665 11.1971 21.6151 11.1776 21.554 11.159C21.4929 11.1405 21.4084 11.121 21.3663 11.1158L21.2897 11.1063L21.1901 11.1239C21.1353 11.1336 21.0539 11.1549 21.0091 11.1714C20.9643 11.1879 20.8904 11.2252 20.8448 11.2544C20.7993 11.2835 20.7283 11.3403 20.6873 11.3806C20.6462 11.4209 20.5771 11.5021 20.5337 11.5611C20.4999 11.6069 20.4663 11.6529 20.4329 11.699L20.411 11.7296L20.4243 11.6683C20.4317 11.6346 20.4521 11.5243 20.4697 11.4232C20.4872 11.322 20.5054 11.2272 20.5098 11.2125L20.518 11.1857H19.9337V11.2226C19.9337 11.2429 19.9164 11.3653 19.8954 11.4945C19.8743 11.6239 19.8395 11.8399 19.8182 11.9747C19.7968 12.1096 19.7587 12.344 19.7338 12.4957C19.7071 12.6568 19.679 12.8177 19.6493 12.9783C19.5917 13.285 19.5327 13.5914 19.4724 13.8976C19.4466 14.0282 19.4157 14.1824 19.4038 14.2404C19.3919 14.2983 19.3821 14.3517 19.3821 14.3591V14.3726H19.7094ZM27.4747 14.3726H27.8092V14.1679L27.8477 13.914C27.8689 13.7744 27.9039 13.5533 27.9255 13.4227C27.947 13.292 27.9738 13.1266 27.9851 13.0549C27.9964 12.9834 28.0263 12.8282 28.0515 12.7103C28.0768 12.5922 28.1083 12.4647 28.1216 12.4268C28.135 12.3889 28.1459 12.349 28.146 12.3383C28.1462 12.3277 28.1747 12.2588 28.2094 12.1854L28.2725 12.0519L28.3559 11.9412L28.4392 11.8305L28.5303 11.762C28.5804 11.7243 28.661 11.6743 28.7095 11.6508L28.7975 11.6082L28.989 11.6095L29.1805 11.6109L29.2559 11.635L29.3313 11.6593L29.344 11.6514L29.3567 11.6435L29.3574 11.5946C29.3577 11.5678 29.3741 11.4677 29.3938 11.3723L29.4297 11.1988L29.3894 11.1831C29.3508 11.1688 29.3118 11.1555 29.2725 11.1432L29.1959 11.1191L29.058 11.1195L28.9201 11.1198L28.8077 11.1594L28.6953 11.1989L28.6109 11.2498L28.5266 11.3007L28.4169 11.4156L28.3072 11.5305L28.2482 11.6197C28.2159 11.6687 28.1873 11.7066 28.1848 11.7039C28.1823 11.7013 28.2 11.5991 28.224 11.4769C28.248 11.3547 28.268 11.2392 28.2683 11.2202L28.269 11.1857H27.7021V11.1956C27.7021 11.2009 27.688 11.2992 27.6707 11.4139C27.6534 11.5286 27.6187 11.75 27.5936 11.9059C27.5635 12.0924 27.5329 12.2788 27.5021 12.4651C27.4752 12.6262 27.447 12.7871 27.4175 12.9478C27.3962 13.0615 27.3584 13.2615 27.3335 13.3921C27.3086 13.5228 27.2677 13.7331 27.2426 13.8595L27.1687 14.231L27.1404 14.3726H27.4747V14.3726ZM12.6496 10.6338L12.7426 10.6342L12.8165 10.609L12.8906 10.5838L12.956 10.5174L13.0215 10.4511L13.0559 10.3626L13.0904 10.2741L13.0916 10.1439L13.0928 10.0137L13.0622 9.96284L13.0315 9.91199L12.9782 9.87903L12.9248 9.84598H12.6945L12.6161 9.88111L12.5376 9.91614L12.4921 9.96492L12.4466 10.0137L12.4108 10.098L12.3751 10.1822L12.3683 10.3135L12.3616 10.4447L12.3948 10.51L12.4282 10.5752L12.4924 10.6044L12.5566 10.6335L12.6496 10.6338Z" fill="#B3131B"/>
</svg>
