<svg width="40" height="25" viewBox="0 0 40 25" fill="none" xmlns="http://www.w3.org/2000/svg">
<path d="M8.58487 8.88111C8.93215 8.76365 9.30496 8.70236 9.6931 8.70236C11.3886 8.70236 12.8033 9.90763 13.125 11.5061L15.5254 11.0159C14.9738 8.29891 12.5735 6.25098 9.6931 6.25098C9.03429 6.25098 8.40101 6.35822 7.80859 6.5574L8.58487 8.88111Z" fill="#FFF100"/>
<path d="M5.75707 16.6542L7.38112 14.8157C6.65592 14.1722 6.20139 13.2376 6.20139 12.1907C6.20139 11.1488 6.65592 10.2091 7.38112 9.57074L5.75707 7.7373C4.52627 8.83022 3.75 10.4185 3.75 12.1958C3.75 13.9679 4.52627 15.5613 5.75707 16.6542Z" fill="#00A3DF"/>
<path d="M13.1262 12.9175C12.7994 14.516 11.3898 15.7161 9.6943 15.7161C9.30616 15.7161 8.93335 15.6549 8.58096 15.5374L7.80469 17.8611C8.39711 18.0603 9.03549 18.1675 9.6943 18.1675C12.5747 18.1675 14.975 16.1247 15.5266 13.4078L13.1262 12.9175Z" fill="#EE4023"/>
<path d="M23.5038 14.5451C23.1055 14.9332 22.5692 15.1681 21.9768 15.1579C21.5682 15.1528 21.1903 15.0302 20.8737 14.8259L20.077 16.0925C20.6234 16.4347 21.2618 16.6389 21.9564 16.6492C22.9625 16.6645 23.8817 16.2661 24.5508 15.6175L23.5038 14.5451ZM22.0636 9.38182C20.0617 9.35118 18.407 10.9548 18.3763 12.9568C18.3661 13.7075 18.5806 14.4123 18.9636 14.9945L25.5415 12.1805C25.1738 10.6024 23.7643 9.41246 22.0636 9.38182ZM19.8829 13.2428C19.8727 13.161 19.8676 13.0742 19.8676 12.9874C19.888 11.8077 20.8584 10.8629 22.0381 10.8833C22.6816 10.8935 23.2536 11.1846 23.6366 11.6442L19.8829 13.2428ZM27.6099 7.74756V14.7596L28.8254 15.2651L28.2483 16.6492L27.043 16.1487C26.7723 16.0312 26.5885 15.8525 26.4506 15.6482C26.3178 15.4439 26.2157 15.1579 26.2157 14.78V7.74756H27.6099Z" fill="black"/>
<path d="M31.9902 10.9859C32.2047 10.9144 32.4294 10.8787 32.6694 10.8787C33.7062 10.8787 34.5641 11.6141 34.7633 12.5896L36.2291 12.2882C35.892 10.6284 34.4263 9.38232 32.6694 9.38232C32.266 9.38232 31.8778 9.44872 31.5203 9.56618L31.9902 10.9859ZM30.2589 15.7304L31.2497 14.612C30.8054 14.2187 30.5296 13.6467 30.5296 13.0083C30.5296 12.37 30.8105 11.798 31.2497 11.4098L30.2589 10.2914C29.5082 10.9553 29.0332 11.9307 29.0332 13.0134C29.0332 14.0961 29.5082 15.0665 30.2589 15.7304ZM34.7633 13.4424C34.5641 14.4179 33.7011 15.1533 32.6694 15.1533C32.4345 15.1533 32.2047 15.1124 31.9902 15.0409L31.5152 16.4607C31.8778 16.5833 32.266 16.6497 32.6694 16.6497C34.4263 16.6497 35.892 15.4035 36.2291 13.7438L34.7633 13.4424Z" fill="black"/>
</svg>
