<svg width="40" height="25" viewBox="0 0 40 25" fill="none" xmlns="http://www.w3.org/2000/svg">
<path d="M13.2537 21.2085V20.0528C13.2537 19.6098 12.984 19.3209 12.5218 19.3209C12.2906 19.3209 12.0402 19.3979 11.8669 19.6483C11.732 19.4364 11.5394 19.3209 11.2505 19.3209C11.0579 19.3209 10.8652 19.3787 10.7111 19.5905V19.3594H10.3066V21.2085H10.7111V20.1877C10.7111 19.8602 10.8845 19.7061 11.1542 19.7061C11.4238 19.7061 11.5587 19.8795 11.5587 20.1877V21.2085H11.9632V20.1877C11.9632 19.8602 12.1558 19.7061 12.4062 19.7061C12.6759 19.7061 12.8107 19.8795 12.8107 20.1877V21.2085H13.2537ZM19.2442 19.3594H18.5893V18.8008H18.1848V19.3594H17.8188V19.7254H18.1848V20.5729C18.1848 20.9967 18.3581 21.2471 18.8204 21.2471C18.9938 21.2471 19.1864 21.1893 19.3212 21.1122L19.2056 20.7655C19.0901 20.8426 18.9552 20.8618 18.8589 20.8618C18.6663 20.8618 18.5893 20.7463 18.5893 20.5536V19.7254H19.2442V19.3594ZM22.6728 19.3209C22.4416 19.3209 22.2876 19.4364 22.1912 19.5905V19.3594H21.7867V21.2085H22.1912V20.1684C22.1912 19.8602 22.3261 19.6868 22.5765 19.6868C22.6535 19.6868 22.7498 19.7061 22.8269 19.7254L22.9425 19.3401C22.8654 19.3209 22.7498 19.3209 22.6728 19.3209ZM17.4913 19.5135C17.2987 19.3787 17.029 19.3209 16.7401 19.3209C16.2778 19.3209 15.9696 19.552 15.9696 19.918C15.9696 20.2262 16.2008 20.3995 16.6053 20.4573L16.7979 20.4766C17.0098 20.5151 17.1254 20.5729 17.1254 20.6692C17.1254 20.804 16.9713 20.9003 16.7016 20.9003C16.4319 20.9003 16.22 20.804 16.0852 20.7077L15.8926 21.0159C16.1045 21.17 16.3934 21.2471 16.6823 21.2471C17.2217 21.2471 17.5299 20.9967 17.5299 20.6499C17.5299 20.3225 17.2795 20.1491 16.8942 20.0913L16.7016 20.0721C16.5282 20.0528 16.3934 20.0143 16.3934 19.8987C16.3934 19.7639 16.5282 19.6868 16.7401 19.6868C16.9713 19.6868 17.2024 19.7832 17.318 19.8409L17.4913 19.5135ZM28.2395 19.3209C28.0083 19.3209 27.8542 19.4364 27.7579 19.5905V19.3594H27.3534V21.2085H27.7579V20.1684C27.7579 19.8602 27.8928 19.6868 28.1432 19.6868C28.2202 19.6868 28.3165 19.7061 28.3936 19.7254L28.5091 19.3401C28.4321 19.3209 28.3165 19.3209 28.2395 19.3209ZM23.0773 20.284C23.0773 20.8426 23.4625 21.2471 24.0596 21.2471C24.3293 21.2471 24.5219 21.1893 24.7146 21.0352L24.5219 20.7077C24.3678 20.8233 24.2137 20.8811 24.0404 20.8811C23.7129 20.8811 23.4818 20.6499 23.4818 20.284C23.4818 19.9373 23.7129 19.7061 24.0404 19.6868C24.2137 19.6868 24.3678 19.7446 24.5219 19.8602L24.7146 19.5328C24.5219 19.3787 24.3293 19.3209 24.0596 19.3209C23.4625 19.3209 23.0773 19.7254 23.0773 20.284ZM26.8141 20.284V19.3594H26.4096V19.5905C26.2748 19.4172 26.0821 19.3209 25.8317 19.3209C25.3117 19.3209 24.9072 19.7254 24.9072 20.284C24.9072 20.8426 25.3117 21.2471 25.8317 21.2471C26.1014 21.2471 26.294 21.1508 26.4096 20.9774V21.2085H26.8141V20.284ZM25.3309 20.284C25.3309 19.9565 25.5428 19.6868 25.8895 19.6868C26.217 19.6868 26.4481 19.9373 26.4481 20.284C26.4481 20.6114 26.217 20.8811 25.8895 20.8811C25.5428 20.8618 25.3309 20.6114 25.3309 20.284ZM20.4962 19.3209C19.9569 19.3209 19.5716 19.7061 19.5716 20.284C19.5716 20.8618 19.9569 21.2471 20.5155 21.2471C20.7851 21.2471 21.0548 21.17 21.2667 20.9967L21.0741 20.7077C20.92 20.8233 20.7273 20.9003 20.5347 20.9003C20.2843 20.9003 20.0339 20.7848 19.9761 20.4573H21.3437V20.3032C21.363 19.7061 21.0163 19.3209 20.4962 19.3209ZM20.4962 19.6676C20.7466 19.6676 20.92 19.8217 20.9585 20.1106H19.9954C20.0339 19.8602 20.2073 19.6676 20.4962 19.6676ZM30.5317 20.284V18.6274H30.1272V19.5905C29.9923 19.4172 29.7997 19.3209 29.5493 19.3209C29.0292 19.3209 28.6247 19.7254 28.6247 20.284C28.6247 20.8426 29.0292 21.2471 29.5493 21.2471C29.819 21.2471 30.0116 21.1508 30.1272 20.9774V21.2085H30.5317V20.284ZM29.0485 20.284C29.0485 19.9565 29.2604 19.6868 29.6071 19.6868C29.9345 19.6868 30.1657 19.9373 30.1657 20.284C30.1657 20.6114 29.9345 20.8811 29.6071 20.8811C29.2604 20.8618 29.0485 20.6114 29.0485 20.284ZM15.5266 20.284V19.3594H15.1221V19.5905C14.9873 19.4172 14.7947 19.3209 14.5443 19.3209C14.0242 19.3209 13.6197 19.7254 13.6197 20.284C13.6197 20.8426 14.0242 21.2471 14.5443 21.2471C14.8139 21.2471 15.0065 21.1508 15.1221 20.9774V21.2085H15.5266V20.284ZM14.0242 20.284C14.0242 19.9565 14.2361 19.6868 14.5828 19.6868C14.9102 19.6868 15.1414 19.9373 15.1414 20.284C15.1414 20.6114 14.9102 20.8811 14.5828 20.8811C14.2361 20.8618 14.0242 20.6114 14.0242 20.284Z" fill="black"/>
<path d="M23.4196 5.31885H17.3521V16.2211H23.4196V5.31885Z" fill="#FF5F00"/>
<path d="M17.7381 10.7673C17.7381 8.55218 18.7782 6.58746 20.3769 5.31618C19.202 4.3916 17.7188 3.83301 16.1008 3.83301C12.2677 3.83301 9.1665 6.93418 9.1665 10.7673C9.1665 14.6004 12.2677 17.7016 16.1008 17.7016C17.7188 17.7016 19.202 17.143 20.3769 16.2184C18.7782 14.9664 17.7381 12.9824 17.7381 10.7673Z" fill="#EB001B"/>
<path d="M31.6055 10.7673C31.6055 14.6004 28.5043 17.7016 24.6712 17.7016C23.0532 17.7016 21.57 17.143 20.395 16.2184C22.013 14.9471 23.0339 12.9824 23.0339 10.7673C23.0339 8.55218 21.9938 6.58746 20.395 5.31618C21.57 4.3916 23.0532 3.83301 24.6712 3.83301C28.5043 3.83301 31.6055 6.95344 31.6055 10.7673Z" fill="#F79E1B"/>
</svg>
